<svg width="420" height="260" viewBox="0 0 420 260" fill="none" xmlns="http://www.w3.org/2000/svg">
  <!-- Spined reptile - stegosaurus-like with prominent spines -->
  <path d="M60 170 Q110 140 170 155 Q230 130 300 160 Q360 145 390 180 L380 205 Q300 215 220 195 Q150 210 70 190 Z" fill="#111"/>
  <!-- Head -->
  <path d="M45 155 L85 135 L125 155 L50 170 Z" fill="#111"/>
  <!-- Spines along back -->
  <path d="M140 120 L145 65 M190 115 L195 60 M245 125 L255 70 M300 130 L310 75" fill="none" stroke="#111" stroke-width="18" stroke-linecap="round"/>
  <!-- Tail with thagomizer -->
  <path d="M390 175 Q440 150 470 170 Q460 185 430 195" fill="none" stroke="#111" stroke-width="25"/>
  <!-- Legs -->
  <ellipse cx="130" cy="205" rx="25" ry="38" fill="#111" transform="rotate(-35 130 205)"/>
  <ellipse cx="270" cy="205" rx="25" ry="38" fill="#111" transform="rotate(30 270 205)"/>
</svg>