<svg xmlns="http://www.w3.org/2000/svg" fill="none" viewBox="0 0 200 200" height="200" width="200">
  
  <g id="core"><path stroke-width="12" stroke="currentColor" fill="currentColor" d="M60 110 Q80 85 110 82 Q145 88 155 115 Q150 135 125 140 Q85 142 65 130 Z" stroke-opacity=".72" />
  
  
  </g><g id="limbs"><path stroke-linecap="round" stroke-width="10" stroke="currentColor" fill="none" d="M125 135 L130 168 L140 165" stroke-opacity=".72" />
  
  
  <path stroke-linecap="round" stroke-width="12" stroke="currentColor" fill="none" d="M145 105 Q165 75 170 55" stroke-opacity=".72" />
  </g><g id="head"><path stroke-linecap="round" stroke-width="10" stroke="currentColor" fill="none" d="M75 135 L70 170 L80 168" stroke-opacity=".72" />
  </g><g id="signature"><path stroke-linecap="round" stroke-width="10" stroke="currentColor" fill="none" d="M95 137 L95 172 L105 170" stroke-opacity=".72" />
  </g><g id="detail"><ellipse transform="rotate(-25 172 52)" stroke-width="10" stroke="currentColor" fill="currentColor" ry="12" rx="18" cy="52" cx="172" stroke-opacity=".72" />
  
  
  <path stroke-linecap="round" stroke-width="14" stroke="currentColor" fill="none" d="M65 115 Q35 125 20 110 Q10 95 25 80" stroke-opacity=".72" />
</g></svg>