<svg xmlns="http://www.w3.org/2000/svg" fill="none" viewBox="0 0 200 200" height="200" width="200">
  <g id="core">
    
    <path fill="currentColor" d="M65 125 Q80 110 105 105 Q135 112 150 130 Q152 148 135 155 Q95 158 70 145 Z" />
  </g>
  
  <g id="limbs">
    
    <path fill="currentColor" d="M80 150 L75 175 L88 172" />
    <path fill="currentColor" d="M125 150 L130 177 L145 173" />
  </g>
  
  <g id="head">
    
    <path fill="currentColor" d="M145 118 Q160 108 165 115" />
  </g>
  
  <g id="signature">
    
    <path fill="currentColor" d="M100 105 Q85 55 55 45 Q65 75 90 110" />
    
    <path fill="currentColor" d="M115 105 Q135 50 165 48 Q155 80 125 112" />
  </g>
  
  <g id="detail">
    
    <path fill="currentColor" d="M70 140 Q50 150 42 145" />
  </g>
</svg>