<svg xmlns="http://www.w3.org/2000/svg" fill="none" viewBox="0 0 200 200" height="200" width="200">
  
  <g id="core"><path stroke-width="12" stroke="currentColor" fill="currentColor" d="M50 115 Q65 85 95 78 Q130 82 150 105 Q155 130 140 145 Q105 150 70 140 Z" stroke-opacity=".72" />
  
  
  </g><g id="limbs"><path stroke-width="11" stroke="currentColor" fill="currentColor" d="M95 85 Q70 65 55 85 Q50 105 65 115" stroke-opacity=".72" />
  
  
  <path stroke-linecap="round" stroke-width="11" stroke="currentColor" fill="none" d="M75 140 L70 170 L82 167" stroke-opacity=".72" />
  </g><g id="head"><path stroke-width="10" stroke="currentColor" fill="currentColor" d="M145 95 Q170 75 175 55 Q180 70 165 85" stroke-opacity=".72" />
  
  </g><g id="signature"><path stroke-linecap="round" stroke-width="9" stroke="currentColor" fill="none" d="M168 68 L175 95 L172 98" stroke-opacity=".72" />
  
  
  </g><g id="detail"><path stroke-linecap="round" stroke-width="11" stroke="currentColor" fill="none" d="M125 140 L135 172 L148 168" stroke-opacity=".72" />
  
  
  <path stroke-linecap="round" stroke-width="12" stroke="currentColor" fill="none" d="M55 125 Q30 135 20 125 Q15 110 35 105" stroke-opacity=".72" />
</g></svg>