<svg xmlns="http://www.w3.org/2000/svg" fill="none" viewBox="0 0 200 200" height="200" width="200">
  
  <g id="core"><path stroke-width="16" stroke="currentColor" fill="currentColor" d="M50 125 Q70 95 95 85 Q125 82 150 98 Q165 120 160 145 Q140 165 95 162 Q65 155 50 140 Z" stroke-opacity=".72" />
  
  
  </g><g id="limbs"><path stroke-linecap="round" stroke-width="16" stroke="currentColor" fill="none" d="M75 150 L70 180 L85 177" stroke-opacity=".72" />
  <path stroke-linecap="round" stroke-width="16" stroke="currentColor" fill="none" d="M125 150 L130 182 L148 178" stroke-opacity=".72" />
  
  
  </g><g id="head"><path stroke-width="15" stroke="currentColor" fill="currentColor" d="M95 88 Q85 55 65 48 Q70 75 90 92" stroke-opacity=".72" />
  </g><g id="signature"><path stroke-width="14" stroke="currentColor" fill="currentColor" d="M125 88 Q140 52 160 50 Q155 75 135 92" stroke-opacity=".72" />
  
  
  </g><g id="detail"><path stroke-linecap="round" stroke-width="13" stroke="currentColor" fill="none" d="M55 140 Q35 150 30 140" stroke-opacity=".72" />
  
  
  <path stroke-linecap="round" stroke-width="14" stroke="currentColor" fill="none" d="M145 105 Q155 85 152 75" stroke-opacity=".72" />
</g></svg>